<?xml version="1.0" encoding="UTF-8" standalone="no"?>
<svg
   xmlns:dc="http://purl.org/dc/elements/1.1/"
   xmlns:cc="http://creativecommons.org/ns#"
   xmlns:rdf="http://www.w3.org/1999/02/22-rdf-syntax-ns#"
   xmlns:svg="http://www.w3.org/2000/svg"
   xmlns="http://www.w3.org/2000/svg"
   width="100.33681mm"
   height="54.563885mm"
   viewBox="0 0 100.33681 54.563885"
   version="1.1"
   id="svg8">
  <defs
     id="defs2">
    <clipPath
       id="clip0">
      <rect
         x="119"
         y="299"
         width="372"
         height="199"
         id="rect833" />
    </clipPath>
  </defs>
  <metadata
     id="metadata5">
    <rdf:RDF>
      <cc:Work
         rdf:about="">
        <dc:format>image/svg+xml</dc:format>
        <dc:type
           rdf:resource="http://purl.org/dc/dcmitype/StillImage" />
        <dc:title></dc:title>
      </cc:Work>
    </rdf:RDF>
  </metadata>
  <g
     id="layer1"
     transform="translate(-27.694694,-20.343059)">
    <path
       d="m 42.805802,23.680207 c 0,-1.0959 0.94774,-1.98437 2.11667,-1.98437 1.16893,0 2.11667,0.88847 2.11667,1.98437 0,1.09591 -0.94774,1.98438 -2.11667,1.98438 -1.16893,0 -2.11667,-0.88847 -2.11667,-1.98438 z"
       stroke="#385d8a"
       stroke-width="0.705556"
       stroke-linejoin="round"
       stroke-miterlimit="10"
       fill="#4f81bd"
       fill-rule="evenodd"
       id="path838" />
    <path
       d="m 55.241222,55.694787 c 0,-1.0959 0.88847,-1.98437 1.98438,-1.98437 1.0959,0 1.98437,0.88847 1.98437,1.98437 0,1.09591 -0.88847,1.98438 -1.98437,1.98438 -1.09591,0 -1.98438,-0.88847 -1.98438,-1.98438 z"
       stroke="#385d8a"
       stroke-width="0.705556"
       stroke-linejoin="round"
       stroke-miterlimit="10"
       fill="#4f81bd"
       fill-rule="evenodd"
       id="path840" />
    <path
       d="m 74.820392,23.680207 c 0,-1.0959 0.94773,-1.98437 2.11666,-1.98437 1.16893,0 2.11667,0.88847 2.11667,1.98437 0,1.09591 -0.94774,1.98438 -2.11667,1.98438 -1.16893,0 -2.11666,-0.88847 -2.11666,-1.98438 z"
       stroke="#385d8a"
       stroke-width="0.705556"
       stroke-linejoin="round"
       stroke-miterlimit="10"
       fill="#4f81bd"
       fill-rule="evenodd"
       id="path842" />
    <path
       d="m 92.812052,52.784377 c 0,-1.09591 0.94774,-1.98438 2.11667,-1.98438 1.16893,0 2.11667,0.88847 2.11667,1.98438 0,1.0959 -0.94774,1.98437 -2.11667,1.98437 -1.16893,0 -2.11667,-0.88847 -2.11667,-1.98437 z"
       stroke="#385d8a"
       stroke-width="0.705556"
       stroke-linejoin="round"
       stroke-miterlimit="10"
       fill="#4f81bd"
       fill-rule="evenodd"
       id="path844" />
    <path
       d="m 102.60164,26.326037 c 0,-1.0959 0.88847,-1.98437 1.98437,-1.98437 1.09591,0 1.98438,0.88847 1.98438,1.98437 0,1.09591 -0.88847,1.98438 -1.98438,1.98438 -1.0959,0 -1.98437,-0.88847 -1.98437,-1.98438 z"
       stroke="#385d8a"
       stroke-width="0.705556"
       stroke-linejoin="round"
       stroke-miterlimit="10"
       fill="#4f81bd"
       fill-rule="evenodd"
       id="path846" />
    <path
       d="m 44.922472,25.664587 10.8802,28.58902"
       stroke="#4a7ebb"
       stroke-linejoin="round"
       stroke-miterlimit="10"
       fill="none"
       fill-rule="evenodd"
       id="path848"
       style="stroke-width:0.264583" />
    <path
       d="m 47.039142,23.547917 h 28.00323"
       stroke="#4a7ebb"
       stroke-linejoin="round"
       stroke-miterlimit="10"
       fill="none"
       fill-rule="evenodd"
       id="path850"
       style="stroke-width:0.264583" />
    <path
       d="m 58.680802,54.310227 16.88018,-29.17481"
       stroke="#4a7ebb"
       stroke-linejoin="round"
       stroke-miterlimit="10"
       fill="none"
       fill-rule="evenodd"
       id="path852"
       style="stroke-width:0.264583" />
    <path
       d="m 59.209972,55.712787 33.71056,-2.79612"
       stroke="#4a7ebb"
       stroke-linejoin="round"
       stroke-miterlimit="10"
       fill="none"
       fill-rule="evenodd"
       id="path854"
       style="stroke-width:0.264583" />
    <path
       d="m 96.251642,51.307207 8.218278,-22.99674"
       stroke="#4a7ebb"
       stroke-linejoin="round"
       stroke-miterlimit="10"
       fill="none"
       fill-rule="evenodd"
       id="path856"
       style="stroke-width:0.264583" />
    <path
       d="m 79.053722,23.547917 23.634168,2.79612"
       stroke="#4a7ebb"
       stroke-linejoin="round"
       stroke-miterlimit="10"
       fill="none"
       fill-rule="evenodd"
       id="path858"
       style="stroke-width:0.264583" />
    <path
       d="m 79.053722,71.569787 c 0,-1.0959 0.88847,-1.98437 1.98438,-1.98437 1.0959,0 1.98437,0.88847 1.98437,1.98437 0,1.09591 -0.88847,1.98438 -1.98437,1.98438 -1.09591,0 -1.98438,-0.88847 -1.98438,-1.98438 z"
       stroke="#385d8a"
       stroke-width="0.705556"
       stroke-linejoin="round"
       stroke-miterlimit="10"
       fill="#4f81bd"
       fill-rule="evenodd"
       id="path860" />
    <path
       d="m 115.03705,66.807287 c 0,-1.0959 0.88847,-1.98437 1.98438,-1.98437 1.0959,0 1.98437,0.88847 1.98437,1.98437 0,1.09591 -0.88847,1.98438 -1.98437,1.98438 -1.09591,0 -1.98438,-0.88847 -1.98438,-1.98438 z"
       stroke="#385d8a"
       stroke-width="0.705556"
       stroke-linejoin="round"
       stroke-miterlimit="10"
       fill="#4f81bd"
       fill-rule="evenodd"
       id="path862" />
    <path
       d="m 112.92039,42.994787 c 0,-1.0959 0.88847,-1.98437 1.98437,-1.98437 1.09591,0 1.98438,0.88847 1.98438,1.98437 0,1.09591 -0.88847,1.98438 -1.98438,1.98438 -1.0959,0 -1.98437,-0.88847 -1.98437,-1.98438 z"
       stroke="#385d8a"
       stroke-width="0.705556"
       stroke-linejoin="round"
       stroke-miterlimit="10"
       fill="#4f81bd"
       fill-rule="evenodd"
       id="path864" />
    <path
       d="m 122.44539,27.384377 c 0,-1.09591 0.94773,-1.98438 2.11666,-1.98438 1.16893,0 2.11667,0.88847 2.11667,1.98438 0,1.0959 -0.94774,1.98437 -2.11667,1.98437 -1.16893,0 -2.11666,-0.88847 -2.11666,-1.98437 z"
       stroke="#385d8a"
       stroke-width="0.705556"
       stroke-linejoin="round"
       stroke-miterlimit="10"
       fill="#4f81bd"
       fill-rule="evenodd"
       id="path866" />
    <path
       d="m 106.57039,26.458337 15.99274,0.91281"
       stroke="#4a7ebb"
       stroke-linejoin="round"
       stroke-miterlimit="10"
       fill="none"
       fill-rule="evenodd"
       id="path868"
       style="stroke-width:0.264583" />
    <path
       d="m 116.35997,41.749667 6.92483,-12.90995"
       stroke="#4a7ebb"
       stroke-linejoin="round"
       stroke-miterlimit="10"
       fill="none"
       fill-rule="evenodd"
       id="path870"
       style="stroke-width:0.264583" />
    <path
       d="M 97.045392,52.795487 113.503,44.449947"
       stroke="#4a7ebb"
       stroke-linejoin="round"
       stroke-miterlimit="10"
       fill="none"
       fill-rule="evenodd"
       id="path872"
       style="stroke-width:0.264583" />
    <path
       d="m 116.90263,64.609927 -2.13016,-19.63076"
       stroke="#4a7ebb"
       stroke-linejoin="round"
       stroke-miterlimit="10"
       fill="none"
       fill-rule="evenodd"
       id="path874"
       style="stroke-width:0.264583" />
    <path
       d="m 96.251642,54.239587 18.587768,12.45684"
       stroke="#4a7ebb"
       stroke-linejoin="round"
       stroke-miterlimit="10"
       fill="none"
       fill-rule="evenodd"
       id="path876"
       style="stroke-width:0.264583" />
    <path
       d="m 82.228722,70.208777 11.17282,-15.96917"
       stroke="#4a7ebb"
       stroke-linejoin="round"
       stroke-miterlimit="10"
       fill="none"
       fill-rule="evenodd"
       id="path878"
       style="stroke-width:0.264583" />
    <path
       d="M 79.561462,70.323077 58.680802,57.149997"
       stroke="#4a7ebb"
       stroke-linejoin="round"
       stroke-miterlimit="10"
       fill="none"
       fill-rule="evenodd"
       id="path880"
       style="stroke-width:0.264583" />
    <path
       d="m 83.022472,71.774847 32.589518,-3.51232"
       stroke="#4a7ebb"
       stroke-linejoin="round"
       stroke-miterlimit="10"
       fill="none"
       fill-rule="evenodd"
       id="path882"
       style="stroke-width:0.264583" />
    <path
       d="m 41.218302,69.717707 c 0,-1.0959 0.88848,-1.98437 1.98438,-1.98437 1.0959,0 1.98437,0.88847 1.98437,1.98437 0,1.09591 -0.88847,1.98438 -1.98437,1.98438 -1.0959,0 -1.98438,-0.88847 -1.98438,-1.98438 z"
       stroke="#385d8a"
       stroke-width="0.705556"
       stroke-linejoin="round"
       stroke-miterlimit="10"
       fill="#4f81bd"
       fill-rule="evenodd"
       id="path884" />
    <path
       d="m 33.545392,46.434377 c 0,-1.09591 0.88847,-1.98438 1.98437,-1.98438 1.09591,0 1.98438,0.88847 1.98438,1.98438 0,1.0959 -0.88847,1.98437 -1.98438,1.98437 -1.0959,0 -1.98437,-0.88847 -1.98437,-1.98437 z"
       stroke="#385d8a"
       stroke-width="0.705556"
       stroke-linejoin="round"
       stroke-miterlimit="10"
       fill="#4f81bd"
       fill-rule="evenodd"
       id="path886" />
    <path
       d="m 35.397472,48.418747 7.65175,19.14261"
       stroke="#4a7ebb"
       stroke-linejoin="round"
       stroke-miterlimit="10"
       fill="none"
       fill-rule="evenodd"
       id="path888"
       style="stroke-width:0.264583" />
    <path
       d="m 43.468592,25.135417 -8.07106,19.44756"
       stroke="#4a7ebb"
       stroke-linejoin="round"
       stroke-miterlimit="10"
       fill="none"
       fill-rule="evenodd"
       id="path890"
       style="stroke-width:0.264583" />
    <path
       d="m 55.692862,57.149997 -11.29961,11.17282"
       stroke="#4a7ebb"
       stroke-linejoin="round"
       stroke-miterlimit="10"
       fill="none"
       fill-rule="evenodd"
       id="path892"
       style="stroke-width:0.264583" />
    <path
       d="m 45.187052,69.585417 33.8373,2.00025"
       stroke="#4a7ebb"
       stroke-linejoin="round"
       stroke-miterlimit="10"
       fill="none"
       fill-rule="evenodd"
       id="path894"
       style="stroke-width:0.264583" />
    <path
       d="m 80.112052,45.905207 c 0,-1.0959 0.88847,-1.98437 1.98438,-1.98437 1.0959,0 1.98437,0.88847 1.98437,1.98437 0,1.09591 -0.88847,1.98438 -1.98437,1.98438 -1.09591,0 -1.98438,-0.88847 -1.98438,-1.98438 z"
       stroke="#71893f"
       stroke-width="0.705556"
       stroke-linejoin="round"
       stroke-miterlimit="10"
       fill="#9bbb59"
       fill-rule="evenodd"
       id="path896" />
    <path
       d="m 56.299552,29.765627 c 0,-1.09591 0.88848,-1.98438 1.98438,-1.98438 1.0959,0 1.98437,0.88847 1.98437,1.98438 0,1.0959 -0.88847,1.98437 -1.98437,1.98437 -1.0959,0 -1.98438,-0.88847 -1.98438,-1.98437 z"
       stroke="#71893f"
       stroke-width="0.705556"
       stroke-linejoin="round"
       stroke-miterlimit="10"
       fill="#9bbb59"
       fill-rule="evenodd"
       id="path898" />
    <path
       d="m 29.047472,31.353127 c 0,-1.09591 0.88847,-1.98438 1.98438,-1.98438 1.0959,0 1.98437,0.88847 1.98437,1.98438 0,1.0959 -0.88847,1.98437 -1.98437,1.98437 -1.09591,0 -1.98438,-0.88847 -1.98438,-1.98437 z"
       stroke="#71893f"
       stroke-width="0.705556"
       stroke-linejoin="round"
       stroke-miterlimit="10"
       fill="#9bbb59"
       fill-rule="evenodd"
       id="path900" />
    <path
       d="m 29.312052,56.223957 c 0,-1.0959 0.94774,-1.98437 2.11667,-1.98437 1.16893,0 2.11667,0.88847 2.11667,1.98437 0,1.09591 -0.94774,1.98438 -2.11667,1.98438 -1.16893,0 -2.11667,-0.88847 -2.11667,-1.98438 z"
       stroke="#71893f"
       stroke-width="0.705556"
       stroke-linejoin="round"
       stroke-miterlimit="10"
       fill="#9bbb59"
       fill-rule="evenodd"
       id="path902" />
    <path
       d="m 44.128722,58.605207 c 0,-1.0959 0.88847,-1.98437 1.98438,-1.98437 1.0959,0 1.98437,0.88847 1.98437,1.98437 0,1.09591 -0.88847,1.98438 -1.98437,1.98438 -1.09591,0 -1.98438,-0.88847 -1.98438,-1.98438 z"
       stroke="#71893f"
       stroke-width="0.705556"
       stroke-linejoin="round"
       stroke-miterlimit="10"
       fill="#9bbb59"
       fill-rule="evenodd"
       id="path904" />
    <path
       d="m 80.376642,30.559377 c 0,-1.09591 0.88847,-1.98438 1.98437,-1.98438 1.09591,0 1.98438,0.88847 1.98438,1.98438 0,1.0959 -0.88847,1.98437 -1.98438,1.98437 -1.0959,0 -1.98437,-0.88847 -1.98437,-1.98437 z"
       stroke="#71893f"
       stroke-width="0.705556"
       stroke-linejoin="round"
       stroke-miterlimit="10"
       fill="#9bbb59"
       fill-rule="evenodd"
       id="path906" />
    <path
       d="m 98.368302,33.072917 c 0,-1.16893 0.88847,-2.11667 1.984378,-2.11667 1.0959,0 1.98437,0.94774 1.98437,2.11667 0,1.16893 -0.88847,2.11667 -1.98437,2.11667 -1.095908,0 -1.984378,-0.94774 -1.984378,-2.11667 z"
       stroke="#71893f"
       stroke-width="0.705556"
       stroke-linejoin="round"
       stroke-miterlimit="10"
       fill="#9bbb59"
       fill-rule="evenodd"
       id="path908" />
    <path
       d="m 99.162052,47.492707 c 0,-1.0959 0.888468,-1.98437 1.984378,-1.98437 1.0959,0 1.98437,0.88847 1.98437,1.98437 0,1.09591 -0.88847,1.98438 -1.98437,1.98438 -1.09591,0 -1.984378,-0.88847 -1.984378,-1.98438 z"
       stroke="#71893f"
       stroke-width="0.705556"
       stroke-linejoin="round"
       stroke-miterlimit="10"
       fill="#9bbb59"
       fill-rule="evenodd"
       id="path910" />
    <path
       d="m 92.018302,67.336457 c 0,-1.0959 0.88847,-1.98437 1.98438,-1.98437 1.0959,0 1.98437,0.88847 1.98437,1.98437 0,1.09591 -0.88847,1.98438 -1.98437,1.98438 -1.09591,0 -1.98438,-0.88847 -1.98438,-1.98438 z"
       stroke="#71893f"
       stroke-width="0.705556"
       stroke-linejoin="round"
       stroke-miterlimit="10"
       fill="#9bbb59"
       fill-rule="evenodd"
       id="path912" />
    <path
       d="m 119.0058,61.515627 c 0,-1.09591 0.88847,-1.98438 1.98438,-1.98438 1.0959,0 1.98437,0.88847 1.98437,1.98438 0,1.0959 -0.88847,1.98437 -1.98437,1.98437 -1.09591,0 -1.98438,-0.88847 -1.98438,-1.98437 z"
       stroke="#71893f"
       stroke-width="0.705556"
       stroke-linejoin="round"
       stroke-miterlimit="10"
       fill="#9bbb59"
       fill-rule="evenodd"
       id="path914" />
    <path
       d="m 33.016222,31.334607 23.15287,-1.70125"
       stroke="#77933c"
       stroke-linejoin="round"
       stroke-miterlimit="10"
       fill="none"
       fill-rule="evenodd"
       id="path916"
       style="stroke-width:0.264583" />
    <path
       d="m 60.268302,29.633337 20.12527,1.01891"
       stroke="#77933c"
       stroke-linejoin="round"
       stroke-miterlimit="10"
       fill="none"
       fill-rule="evenodd"
       id="path918"
       style="stroke-width:0.264583" />
    <path
       d="m 31.164142,33.337497 0.35771,20.8796"
       stroke="#77933c"
       stroke-linejoin="round"
       stroke-miterlimit="10"
       fill="none"
       fill-rule="evenodd"
       id="path920"
       style="stroke-width:0.264583" />
    <path
       d="m 32.751642,57.679167 11.29347,0.84614"
       stroke="#77933c"
       stroke-linejoin="round"
       stroke-miterlimit="10"
       fill="none"
       fill-rule="evenodd"
       id="path922"
       style="stroke-width:0.264583" />
    <path
       d="m 58.241332,31.749997 -10.67311,25.42733"
       stroke="#77933c"
       stroke-linejoin="round"
       stroke-miterlimit="10"
       fill="none"
       fill-rule="evenodd"
       id="path924"
       style="stroke-width:0.264583" />
    <path
       d="m 80.707632,47.095837 -32.61016,11.27453"
       stroke="#77933c"
       stroke-linejoin="round"
       stroke-miterlimit="10"
       fill="none"
       fill-rule="evenodd"
       id="path926"
       style="stroke-width:0.264583" />
    <path
       d="m 82.228722,43.677417 0.18847,-11.13361"
       stroke="#77933c"
       stroke-linejoin="round"
       stroke-miterlimit="10"
       fill="none"
       fill-rule="evenodd"
       id="path928"
       style="stroke-width:0.264583" />
    <path
       d="m 59.739142,30.956247 20.52267,14.73862"
       stroke="#77933c"
       stroke-linejoin="round"
       stroke-miterlimit="10"
       fill="none"
       fill-rule="evenodd"
       id="path930"
       style="stroke-width:0.264583" />
    <path
       d="m 84.345392,30.691667 14.11023,2.41168"
       stroke="#77933c"
       stroke-linejoin="round"
       stroke-miterlimit="10"
       fill="none"
       fill-rule="evenodd"
       id="path932"
       style="stroke-width:0.264583" />
    <path
       d="m 84.080802,45.772917 15.06882,1.60311"
       stroke="#77933c"
       stroke-linejoin="round"
       stroke-miterlimit="10"
       fill="none"
       fill-rule="evenodd"
       id="path934"
       style="stroke-width:0.264583" />
    <path
       d="M 92.711252,65.904537 82.228722,47.889587"
       stroke="#77933c"
       stroke-linejoin="round"
       stroke-miterlimit="10"
       fill="none"
       fill-rule="evenodd"
       id="path936"
       style="stroke-width:0.264583" />
    <path
       d="m 95.457892,65.945547 4.34364,-16.9976"
       stroke="#77933c"
       stroke-linejoin="round"
       stroke-miterlimit="10"
       fill="none"
       fill-rule="evenodd"
       id="path938"
       style="stroke-width:0.264583" />
    <path
       d="m 101.25517,45.514687 -0.7702,-10.3251"
       stroke="#77933c"
       stroke-linejoin="round"
       stroke-miterlimit="10"
       fill="none"
       fill-rule="evenodd"
       id="path940"
       style="stroke-width:0.264583" />
    <path
       d="M 120.82984,59.471717 101.80789,34.395837"
       stroke="#77933c"
       stroke-linejoin="round"
       stroke-miterlimit="10"
       fill="none"
       fill-rule="evenodd"
       id="path942"
       style="stroke-width:0.264583" />
    <path
       d="m 118.8534,61.698717 -16.25176,-12.7508"
       stroke="#77933c"
       stroke-linejoin="round"
       stroke-miterlimit="10"
       fill="none"
       fill-rule="evenodd"
       id="path944"
       style="stroke-width:0.264583" />
    <path
       d="m 119.41115,62.970837 -23.424058,4.24691"
       stroke="#77933c"
       stroke-linejoin="round"
       stroke-miterlimit="10"
       fill="none"
       fill-rule="evenodd"
       id="path946"
       style="stroke-width:0.264583" />
  </g>
</svg>
