<?xml version="1.0" encoding="UTF-8" standalone="no"?>
<svg
   xmlns:dc="http://purl.org/dc/elements/1.1/"
   xmlns:cc="http://creativecommons.org/ns#"
   xmlns:rdf="http://www.w3.org/1999/02/22-rdf-syntax-ns#"
   xmlns:svg="http://www.w3.org/2000/svg"
   xmlns="http://www.w3.org/2000/svg"
   xmlns:xlink="http://www.w3.org/1999/xlink"
   xmlns:sodipodi="http://sodipodi.sourceforge.net/DTD/sodipodi-0.dtd"
   xmlns:inkscape="http://www.inkscape.org/namespaces/inkscape"
   height="53.834728"
   width="171.60881"
   version="1.1"
   viewBox="0 0 171.60881 53.834728"
   data-name="Ebene 1"
   id="Ebene_1"
   inkscape:version="0.91 r13725"
   sodipodi:docname="lasso_logo1.svg">
  <sodipodi:namedview
     pagecolor="#ffffff"
     bordercolor="#666666"
     borderopacity="1"
     objecttolerance="10"
     gridtolerance="10"
     guidetolerance="10"
     inkscape:pageopacity="0"
     inkscape:pageshadow="2"
     inkscape:window-width="1743"
     inkscape:window-height="977"
     id="namedview13"
     showgrid="false"
     fit-margin-top="1"
     fit-margin-left="1"
     fit-margin-right="1"
     fit-margin-bottom="1"
     inkscape:zoom="5.0056127"
     inkscape:cx="79.099248"
     inkscape:cy="8.1190006"
     inkscape:window-x="629"
     inkscape:window-y="328"
     inkscape:window-maximized="0"
     inkscape:current-layer="Ebene_1" />
  <metadata
     id="metadata70">
    <rdf:RDF>
      <cc:Work
         rdf:about="">
        <dc:format>image/svg+xml</dc:format>
        <dc:type
           rdf:resource="http://purl.org/dc/dcmitype/StillImage" />
        <dc:title>Zeichenfläche 1</dc:title>
      </cc:Work>
    </rdf:RDF>
  </metadata>
  <defs
     id="defs13">
    <style
       id="style2">.cls-1{fill:url(#Unbenannter_Verlauf_7);}.cls-2{fill:#328ccc;}</style>
    <linearGradient
       gradientTransform="translate(-12,-0.18)"
       gradientUnits="userSpaceOnUse"
       y2="-21.07"
       x2="149.78"
       y1="73.400002"
       x1="55.32"
       id="Unbenannter_Verlauf_7">
      <stop
         id="stop4"
         stop-color="#006eb7"
         offset="0" />
      <stop
         id="stop6"
         stop-color="#1178be"
         offset="0.26" />
      <stop
         id="stop8"
         stop-color="#2987c8"
         offset="0.72" />
      <stop
         id="stop10"
         stop-color="#328ccc"
         offset="1" />
    </linearGradient>
    <linearGradient
       gradientTransform="translate(-27.18296,71.994317)"
       gradientUnits="userSpaceOnUse"
       y2="-21.07"
       x2="149.78"
       y1="73.400002"
       x1="55.32"
       id="Unbenannter_Verlauf_7-3">
      <stop
         id="stop4-6"
         stop-color="#006eb7"
         offset="0" />
      <stop
         id="stop6-7"
         stop-color="#1178be"
         offset="0.26" />
      <stop
         id="stop8-5"
         stop-color="#2987c8"
         offset="0.72" />
      <stop
         id="stop10-3"
         stop-color="#328ccc"
         offset="1" />
    </linearGradient>
    <linearGradient
       inkscape:collect="always"
       xlink:href="#Unbenannter_Verlauf_7"
       id="linearGradient4181"
       x1="10.274393"
       y1="54.875347"
       x2="179.6088"
       y2="54.875347"
       gradientUnits="userSpaceOnUse"
       gradientTransform="translate(-9,-9)" />
    <linearGradient
       inkscape:collect="always"
       xlink:href="#Unbenannter_Verlauf_7"
       id="linearGradient4183"
       gradientUnits="userSpaceOnUse"
       gradientTransform="translate(-21,-9.18)"
       x1="55.32"
       y1="73.400002"
       x2="149.78"
       y2="-21.07" />
  </defs>
  <title
     id="title15">Zeichenfläche 1</title>
  <path
     style="fill:url(#linearGradient4183)"
     id="path17"
     d="m 153,1 -38.39,0 -40.2,0 a 8.5,8.5 0 1 0 0,17 l 4.94,0 a 7.09,7.09 0 0 1 0,14.17 l -39.53,0 a 2.5,2.5 0 1 1 0,-5 l 12,0 a 3.89,3.89 0 0 0 3.65,-5.22 L 49.25,4.82 a 5.64,5.64 0 0 0 -10.62,0 l -8.95,24.59 a 4.25,4.25 0 0 1 -4,2.8 l -17.62,0 A 4.25,4.25 0 0 1 3.83,27.96 l 0,-26.92 -2.83,0 0,26.92 a 7.08,7.08 0 0 0 7.06,7.08 l 17.65,0 a 7.08,7.08 0 0 0 6.64,-4.66 L 41.3,5.74 a 2.82,2.82 0 0 1 5.3,0 L 52.83,23 a 1.07,1.07 0 0 1 -1,1.43 l -12,0 a 5.31,5.31 0 0 0 0,10.62 l 74.82,0 a 9.915,9.915 0 0 0 0,-19.83 l -4.94,0 a 5.67,5.67 0 1 1 0,-11.34 l 33.93,0 a 16.92,16.92 0 1 0 9.4,-2.87 z m -43.33,17 4.94,0 a 7.09,7.09 0 0 1 0,14.17 l -28.4,0 a 9.91,9.91 0 0 0 -6.9,-17 l -4.9,0 a 5.67,5.67 0 1 1 0,-11.34 l 29,0 A 8.49,8.49 0 0 0 109.7,18 Z M 153,32.17 a 14.16,14.16 0 0 1 -0.77,-28.3 l 0.79,0 0,0 a 14.17,14.17 0 0 1 0,28.34 z"
     class="cls-1"
     inkscape:connector-curvature="0" />
  <text
     xml:space="preserve"
     style="font-style:normal;font-weight:normal;font-size:40px;line-height:125%;font-family:sans-serif;letter-spacing:0px;word-spacing:0px;fill:url(#linearGradient4181);fill-opacity:1;stroke:none;stroke-width:1px;stroke-linecap:butt;stroke-linejoin:miter;stroke-opacity:1"
     x="-0.010091782"
     y="49.844616"
     id="text4171"
     sodipodi:linespacing="125%"><tspan
       sodipodi:role="line"
       id="tspan4173"
       x="-0.010091782"
       y="49.844616"
       style="font-size:14.375px;fill:url(#linearGradient4181);fill-opacity:1">Ingenieurgesellschaft mbH</tspan></text>
</svg>
