<svg id="Ebene_1" data-name="Ebene 1" xmlns="http://www.w3.org/2000/svg" xmlns:xlink="http://www.w3.org/1999/xlink" viewBox="0 0 406.28 54"><defs><style>.cls-1{fill:url(#Unbenannter_Verlauf_7);}.cls-2{fill:#328ccc;}</style><linearGradient id="Unbenannter_Verlauf_7" x1="55.32" y1="73.4" x2="149.78" y2="-21.07" gradientUnits="userSpaceOnUse"><stop offset="0" stop-color="#006eb7"/><stop offset="0.26" stop-color="#1178be"/><stop offset="0.72" stop-color="#2987c8"/><stop offset="1" stop-color="#328ccc"/></linearGradient></defs><title>Zeichenfläche 1</title><path class="cls-1" d="M174,10.18l-38.39,0H95.41a8.5,8.5,0,0,0,0,17h4.94a7.09,7.09,0,0,1,0,14.17H60.82a2.48,2.48,0,0,1,0-5h12a3.89,3.89,0,0,0,3.65-5.22L70.25,14a5.64,5.64,0,0,0-10.62,0L50.68,38.59a4.25,4.25,0,0,1-4,2.8H29.06a4.25,4.25,0,0,1-4.23-4.25V10.22H22V37.14a7.08,7.08,0,0,0,7.06,7.08H46.71a7.08,7.08,0,0,0,6.64-4.66l8.95-24.64a2.82,2.82,0,0,1,5.3,0l6.23,17.26a1.07,1.07,0,0,1-1,1.43h-12a5.31,5.31,0,0,0,0,10.62h74.82a9.91,9.91,0,0,0,0-19.83h-4.94a5.67,5.67,0,0,1,0-11.34h33.93a16.92,16.92,0,1,0,9.4-2.87Zm-43.33,17h4.94a7.09,7.09,0,0,1,0,14.17h-28.4a9.91,9.91,0,0,0-6.9-17H95.41a5.67,5.67,0,0,1,0-11.34h29a8.49,8.49,0,0,0,6.29,14.17ZM174,41.35a14.16,14.16,0,0,1-.77-28.3h.79v0a14.17,14.17,0,0,1,0,28.34Z"/><path class="cls-2" d="M206.64,44.93V34h1.09V44.93Z"/><path class="cls-2" d="M215.92,44.93V40.06a2.57,2.57,0,0,0-.5-1.75,1.74,1.74,0,0,0-1.36-.55q-2,0-2,2.28v4.9H211V37h1.09v.87a2.36,2.36,0,0,1,2.06-1.06,2.57,2.57,0,0,1,2.16.89,4.66,4.66,0,0,1,.69,2.85v4.42Z"/><path class="cls-2" d="M222.22,48.25l-.5-.86a4.38,4.38,0,0,0,2.47-.66,1.85,1.85,0,0,0,.68-1.5V44a2.46,2.46,0,0,1-2.18,1.09,2.94,2.94,0,0,1-2.32-1.1,4.58,4.58,0,0,1-.94-3.08,4.65,4.65,0,0,1,.92-3,3,3,0,0,1,2.4-1.12,2.64,2.64,0,0,1,2.12.94V37H226V44.8Q226,48.1,222.22,48.25Zm.72-4.12a1.94,1.94,0,0,0,1.07-.37,2.57,2.57,0,0,0,.87-1V39a2.31,2.31,0,0,0-.88-.89,2.14,2.14,0,0,0-1.05-.33,2.06,2.06,0,0,0-1.77.82,4,4,0,0,0-.6,2.36,3.73,3.73,0,0,0,.66,2.35A2.07,2.07,0,0,0,222.94,44.13Z"/><path class="cls-2" d="M231.93,45.12a3,3,0,0,1-2.51-1.22,4.66,4.66,0,0,1-1-3,4.54,4.54,0,0,1,1-3.06,3.15,3.15,0,0,1,2.51-1.11,2.93,2.93,0,0,1,2.26,1,4.14,4.14,0,0,1,.89,2.88q0,.42,0,.76h-5.43a3.68,3.68,0,0,0,.75,2,2,2,0,0,0,1.61.73,3,3,0,0,0,1.79-.62l.59.73A3.72,3.72,0,0,1,231.93,45.12Zm-2.34-4.71H234a2.84,2.84,0,0,0-.63-2.05,2,2,0,0,0-1.41-.6,2.16,2.16,0,0,0-1.64.67A3,3,0,0,0,229.59,40.4Z"/><path class="cls-2" d="M242.41,44.93V40.06a2.57,2.57,0,0,0-.5-1.75,1.74,1.74,0,0,0-1.36-.55q-2,0-2,2.28v4.9h-1.09V37h1.09v.87a2.36,2.36,0,0,1,2.06-1.06,2.57,2.57,0,0,1,2.16.89,4.66,4.66,0,0,1,.69,2.85v4.42Z"/><path class="cls-2" d="M247.54,35.12a.72.72,0,0,1-1.23-.51.73.73,0,0,1,.21-.53.71.71,0,0,1,1,0,.75.75,0,0,1,.2.53A.7.7,0,0,1,247.54,35.12Zm-1.06,9.81V37h1.09v8Z"/><path class="cls-2" d="M253.55,45.12A3,3,0,0,1,251,43.9a4.66,4.66,0,0,1-1-3,4.54,4.54,0,0,1,1-3.06,3.15,3.15,0,0,1,2.51-1.11,2.93,2.93,0,0,1,2.26,1,4.14,4.14,0,0,1,.89,2.88q0,.42,0,.76h-5.43a3.68,3.68,0,0,0,.75,2,2,2,0,0,0,1.61.73,3,3,0,0,0,1.79-.62l.59.73A3.72,3.72,0,0,1,253.55,45.12Zm-2.34-4.71h4.38a2.84,2.84,0,0,0-.63-2.05,2,2,0,0,0-1.41-.6,2.16,2.16,0,0,0-1.64.67A3,3,0,0,0,251.21,40.4Z"/><path class="cls-2" d="M264,44.93v-.76a2.36,2.36,0,0,1-.87.74,3.22,3.22,0,0,1-3.35-.66A4.59,4.59,0,0,1,259,41.4V37h1.09v4.87a2.57,2.57,0,0,0,.5,1.75,1.7,1.7,0,0,0,1.34.56q2,0,2-2.28V37H265v8Z"/><path class="cls-2" d="M268.09,44.93V37h1.09v1.12a2.07,2.07,0,0,1,2-1.31,1.86,1.86,0,0,1,1.12.33l-.17,1.06a1.94,1.94,0,0,0-1-.3,1.83,1.83,0,0,0-1.33.62,2.7,2.7,0,0,0-.6,1.94v4.51Z"/><path class="cls-2" d="M276.51,48.25l-.5-.86a4.38,4.38,0,0,0,2.47-.66,1.85,1.85,0,0,0,.68-1.5V44A2.46,2.46,0,0,1,277,45.12a2.94,2.94,0,0,1-2.32-1.1,4.58,4.58,0,0,1-.94-3.08,4.65,4.65,0,0,1,.92-3,3,3,0,0,1,2.4-1.12,2.64,2.64,0,0,1,2.12.94V37h1.09V44.8Q280.25,48.1,276.51,48.25Zm.72-4.12a1.94,1.94,0,0,0,1.07-.37,2.57,2.57,0,0,0,.87-1V39a2.31,2.31,0,0,0-.88-.89,2.14,2.14,0,0,0-1.05-.33,2.06,2.06,0,0,0-1.77.82,4,4,0,0,0-.6,2.36,3.73,3.73,0,0,0,.66,2.35A2.07,2.07,0,0,0,277.23,44.13Z"/><path class="cls-2" d="M286.21,45.12a3,3,0,0,1-2.51-1.22,4.66,4.66,0,0,1-1-3,4.54,4.54,0,0,1,1-3.06,3.15,3.15,0,0,1,2.51-1.11,2.93,2.93,0,0,1,2.26,1,4.14,4.14,0,0,1,.89,2.88q0,.42,0,.76H283.9a3.68,3.68,0,0,0,.75,2,2,2,0,0,0,1.61.73,3,3,0,0,0,1.79-.62l.59.73A3.72,3.72,0,0,1,286.21,45.12Zm-2.34-4.71h4.38a2.84,2.84,0,0,0-.63-2.05,2,2,0,0,0-1.41-.6,2.16,2.16,0,0,0-1.64.67A3,3,0,0,0,283.87,40.4Z"/><path class="cls-2" d="M294,45.12a3.5,3.5,0,0,1-2.75-1.39l.76-.67a2.68,2.68,0,0,0,2.08,1.09,1.93,1.93,0,0,0,1.12-.3,1,1,0,0,0,.44-.85,1.23,1.23,0,0,0-.16-.62,1.56,1.56,0,0,0-.49-.5,4.64,4.64,0,0,0-.6-.35l-.73-.31q-.56-.23-.92-.42a5.47,5.47,0,0,1-.73-.47,1.77,1.77,0,0,1-.55-.66,2,2,0,0,1-.18-.87,1.77,1.77,0,0,1,.72-1.47,2.92,2.92,0,0,1,1.86-.56A3.22,3.22,0,0,1,296.48,38l-.72.61a2.64,2.64,0,0,0-1.9-.86,1.92,1.92,0,0,0-1.1.28.88.88,0,0,0-.41.76.9.9,0,0,0,.11.44,1.3,1.3,0,0,0,.25.34,2.22,2.22,0,0,0,.44.3,4.77,4.77,0,0,0,.47.23l.56.23.73.3a6.16,6.16,0,0,1,.66.36,2.59,2.59,0,0,1,.61.48,2.36,2.36,0,0,1,.38.62,2.13,2.13,0,0,1,.16.85,2,2,0,0,1-.73,1.59A3,3,0,0,1,294,45.12Z"/><path class="cls-2" d="M302.16,45.12a3,3,0,0,1-2.51-1.22,4.66,4.66,0,0,1-1-3,4.54,4.54,0,0,1,1-3.06,3.15,3.15,0,0,1,2.51-1.11,2.93,2.93,0,0,1,2.26,1,4.14,4.14,0,0,1,.89,2.88q0,.42,0,.76h-5.43a3.68,3.68,0,0,0,.75,2,2,2,0,0,0,1.61.73,3,3,0,0,0,1.79-.62l.59.73A3.72,3.72,0,0,1,302.16,45.12Zm-2.34-4.71h4.38a2.84,2.84,0,0,0-.63-2.05,2,2,0,0,0-1.41-.6,2.16,2.16,0,0,0-1.64.67A3,3,0,0,0,299.82,40.4Z"/><path class="cls-2" d="M307.8,44.93V34.2l1.09-.53V44.93Z"/><path class="cls-2" d="M312.09,44.93V34.2l1.09-.53V44.93Z"/><path class="cls-2" d="M318.55,45.12a3.5,3.5,0,0,1-2.75-1.39l.76-.67a2.68,2.68,0,0,0,2.08,1.09,1.93,1.93,0,0,0,1.12-.3,1,1,0,0,0,.44-.85,1.23,1.23,0,0,0-.16-.62,1.56,1.56,0,0,0-.49-.5,4.64,4.64,0,0,0-.6-.35l-.73-.31q-.56-.23-.92-.42a5.47,5.47,0,0,1-.73-.47,1.77,1.77,0,0,1-.55-.66,2,2,0,0,1-.18-.87,1.77,1.77,0,0,1,.72-1.47,2.92,2.92,0,0,1,1.86-.56A3.22,3.22,0,0,1,321,38l-.72.61a2.64,2.64,0,0,0-1.9-.86,1.92,1.92,0,0,0-1.1.28.88.88,0,0,0-.41.76.9.9,0,0,0,.11.44,1.3,1.3,0,0,0,.25.34,2.22,2.22,0,0,0,.44.3,4.77,4.77,0,0,0,.47.23l.56.23.73.3a6.16,6.16,0,0,1,.66.36,2.59,2.59,0,0,1,.61.48,2.36,2.36,0,0,1,.38.62,2.13,2.13,0,0,1,.16.85,2,2,0,0,1-.73,1.59A3,3,0,0,1,318.55,45.12Z"/><path class="cls-2" d="M326.37,45.12a2.76,2.76,0,0,1-2.3-1.1,4.91,4.91,0,0,1-.85-3.06,4.85,4.85,0,0,1,.87-3.07,2.89,2.89,0,0,1,2.4-1.11,2.8,2.8,0,0,1,1.56.44,2.62,2.62,0,0,1,1,1.23l-1,.39a1.6,1.6,0,0,0-1.61-1.08q-2.09,0-2.09,3.2t2.06,3.18a1.85,1.85,0,0,0,1.1-.33,1.82,1.82,0,0,0,.66-.89l1,.38a2.5,2.5,0,0,1-1,1.33A3.14,3.14,0,0,1,326.37,45.12Z"/><path class="cls-2" d="M331.5,44.93V34.18l1.09-.51v4.18a2.33,2.33,0,0,1,2.06-1.08,2.57,2.57,0,0,1,2.16.89,4.66,4.66,0,0,1,.69,2.85v4.42h-1.09V40.06a2.57,2.57,0,0,0-.5-1.75,1.74,1.74,0,0,0-1.36-.55q-2,0-2,2.28v4.9Z"/><path class="cls-2" d="M345.05,44.93v-.78a3.43,3.43,0,0,1-2.34,1,2.76,2.76,0,0,1-2-.69,2.63,2.63,0,0,1-.73-2,2.37,2.37,0,0,1,.83-2,3.2,3.2,0,0,1,2.07-.67,4.49,4.49,0,0,1,2.15.56v-.67q0-1.95-1.75-2a4.23,4.23,0,0,0-2.37.86l-.31-.94a5.15,5.15,0,0,1,2.79-.87,3.4,3.4,0,0,1,.9.12,2.75,2.75,0,0,1,.83.41,2,2,0,0,1,.66.86,3.44,3.44,0,0,1,.25,1.38v5.4Zm-2.23-.76a2.86,2.86,0,0,0,2.23-1.23V41.39a3.63,3.63,0,0,0-2-.66,2.3,2.3,0,0,0-1.43.43,1.47,1.47,0,0,0-.57,1.26,1.72,1.72,0,0,0,.48,1.27A1.8,1.8,0,0,0,342.82,44.16Z"/><path class="cls-2" d="M350.23,37.94v7h-1.09v-7h-1.28V37h1.28V35.6a1.73,1.73,0,0,1,.48-1.34,1.68,1.68,0,0,1,1.18-.44,2.82,2.82,0,0,1,1.36.38v1a2.44,2.44,0,0,0-1.14-.31,1.06,1.06,0,0,0-.44.08.46.46,0,0,0-.24.23,1,1,0,0,0-.09.28,3.06,3.06,0,0,0,0,.34V37h1.92v1Z"/><path class="cls-2" d="M356.41,45.12q-1.57,0-1.58-1.83V37.94h-1.36V37h1.36V34.21l1.09-.55V37h2v1h-2v4.88a2.06,2.06,0,0,0,.17.94.7.7,0,0,0,.69.33,2.23,2.23,0,0,0,1.2-.47l-.12,1.14A3,3,0,0,1,356.41,45.12Z"/><path class="cls-2" d="M373.55,44.93V40q0-2.29-1.73-2.29a1.59,1.59,0,0,0-1.35.66A2.66,2.66,0,0,0,370,40v4.88h-1.09V40q0-2.29-1.73-2.29a1.64,1.64,0,0,0-1.37.6,2.45,2.45,0,0,0-.48,1.57v5h-1.09V37h1.09v.78a2.71,2.71,0,0,1,2.17-1,2.51,2.51,0,0,1,1.23.33,2.37,2.37,0,0,1,.92.89,2.68,2.68,0,0,1,.94-.87,2.82,2.82,0,0,1,3.29.44,2.82,2.82,0,0,1,.77,2.08v5.3Z"/><path class="cls-2" d="M380.92,45.12a2.94,2.94,0,0,1-1-.16,2.87,2.87,0,0,1-.67-.31q-.23-.16-.57-.44v.72h-1.09V34.21l1.09-.55v4.07a2.9,2.9,0,0,1,1-.7,2.74,2.74,0,0,1,1.15-.26,2.92,2.92,0,0,1,2.4,1.11,4.75,4.75,0,0,1,.89,3.06,5,5,0,0,1-.84,3.1A2.81,2.81,0,0,1,380.92,45.12Zm-.17-1a1.87,1.87,0,0,0,1.67-.84,4.22,4.22,0,0,0,.56-2.36,4.17,4.17,0,0,0-.56-2.36,1.89,1.89,0,0,0-1.67-.82,2.11,2.11,0,0,0-1.22.38,2.69,2.69,0,0,0-.82.83v3.92a2.55,2.55,0,0,0,.89.91A2.19,2.19,0,0,0,380.75,44.13Z"/><path class="cls-2" d="M393.27,44.93V39.76h-5.33v5.16h-1.09V34h1.09v4.73h5.33V34h1.09V44.93Z"/></svg>