<?xml version="1.0" encoding="UTF-8" standalone="no"?>
<svg
   xmlns:dc="http://purl.org/dc/elements/1.1/"
   xmlns:cc="http://creativecommons.org/ns#"
   xmlns:rdf="http://www.w3.org/1999/02/22-rdf-syntax-ns#"
   xmlns:svg="http://www.w3.org/2000/svg"
   xmlns="http://www.w3.org/2000/svg"
   xmlns:sodipodi="http://sodipodi.sourceforge.net/DTD/sodipodi-0.dtd"
   xmlns:inkscape="http://www.inkscape.org/namespaces/inkscape"
   width="143.16943mm"
   height="116.6918mm"
   viewBox="0 0 143.16943 116.6918"
   version="1.1"
   id="svg8"
   inkscape:version="1.0.2 (e86c870879, 2021-01-15, custom)"
   sodipodi:docname="line-projection-comparison.svg">
  <defs
     id="defs2">
    <clipPath
       id="clip0">
      <rect
         x="-24"
         y="194"
         width="651"
         height="629"
         id="rect833" />
    </clipPath>
  </defs>
  <sodipodi:namedview
     id="base"
     pagecolor="#151515"
     bordercolor="#666666"
     borderopacity="1.0"
     inkscape:pageopacity="0"
     inkscape:pageshadow="2"
     inkscape:zoom="1.4"
     inkscape:cx="212.34355"
     inkscape:cy="255.71397"
     inkscape:document-units="mm"
     inkscape:current-layer="layer1"
     inkscape:document-rotation="0"
     showgrid="false"
     inkscape:window-width="1920"
     inkscape:window-height="1017"
     inkscape:window-x="-8"
     inkscape:window-y="-8"
     inkscape:window-maximized="1"
     fit-margin-top="1"
     fit-margin-left="1"
     fit-margin-right="1"
     fit-margin-bottom="1" />
  <metadata
     id="metadata5">
    <rdf:RDF>
      <cc:Work
         rdf:about="">
        <dc:format>image/svg+xml</dc:format>
        <dc:type
           rdf:resource="http://purl.org/dc/dcmitype/StillImage" />
        <dc:title></dc:title>
      </cc:Work>
    </rdf:RDF>
  </metadata>
  <g
     inkscape:label="Layer 1"
     inkscape:groupmode="layer"
     id="layer1"
     transform="translate(-16.861715,-0.61837025)">
    <path
       d="m 21.886273,103.40248 h -0.34417 c -0.0062,-0.11369 -0.03101,-0.2 -0.0744,-0.2589 -0.04342,-0.0589 -0.123005,-0.0884 -0.23876,-0.0884 -0.289375,0 -0.500222,0.32555 -0.632513,0.97669 -0.132292,0.65111 -0.251143,2.44842 -0.356553,5.39191 -0.105434,2.6479 -0.310589,4.45761 -0.615479,5.42912 -0.304893,0.97152 -0.716753,1.45727 -1.235583,1.45727 -0.10542,0 -0.202573,-0.008 -0.291457,-0.0248 -0.08888,-0.0165 -0.167431,-0.0434 -0.235643,-0.0806 l 0.05891,-0.67902 h 0.313158 c 0.03101,0.13642 0.07131,0.23201 0.120923,0.2868 0.04961,0.0548 0.125058,0.0822 0.226343,0.0822 0.186034,0 0.364836,-0.32142 0.5364,-0.96428 0.171567,-0.64285 0.305925,-2.32441 0.403077,-5.04465 0.119888,-2.95177 0.312642,-4.89532 0.57826,-5.83065 0.265629,-0.93535 0.705392,-1.40303 1.319305,-1.40303 0.109538,0 0.209286,0.01 0.299191,0.0295 0.08993,0.0196 0.165894,0.0439 0.227912,0.0729 z m 2.523887,0 h -0.34417 c -0.0062,-0.11369 -0.03101,-0.2 -0.07443,-0.2589 -0.04339,-0.0589 -0.122978,-0.0884 -0.238734,-0.0884 -0.289401,0 -0.500221,0.32555 -0.632513,0.97669 -0.132291,0.65111 -0.251142,2.44842 -0.356578,5.39191 -0.10541,2.6479 -0.310568,4.45761 -0.615474,5.42912 -0.30488,0.97152 -0.71673,1.45727 -1.235578,1.45727 -0.10541,0 -0.202565,-0.008 -0.291438,-0.0248 -0.0889,-0.0165 -0.167455,-0.0434 -0.235665,-0.0806 l 0.05892,-0.67902 h 0.313161 c 0.03101,0.13642 0.0713,0.23201 0.120914,0.2868 0.04961,0.0548 0.125069,0.0822 0.226351,0.0822 0.186029,0 0.364834,-0.32142 0.53639,-0.96428 0.171582,-0.64285 0.305938,-2.32441 0.403093,-5.04465 0.119883,-2.95177 0.312631,-4.89532 0.578247,-5.83065 0.265615,-0.93535 0.705379,-1.40303 1.319292,-1.40303 0.109564,0 0.209311,0.01 0.299217,0.0295 0.0899,0.0196 0.165867,0.0439 0.227885,0.0729 z"
       id="path838"
       style="fill:#e6e6e6;fill-opacity:1;stroke:none;stroke-width:0.264583" />
    <text
       font-family="'Cambria Math', 'Cambria Math_MSFontService', sans-serif"
       font-weight="400"
       font-size="6.35px"
       id="text842"
       x="26.240839"
       y="111.27796"
       style="fill:#e6e6e6;fill-opacity:1;stroke:none;stroke-width:0.264583">𝑓<tspan
   font-size="4.7625px"
   x="28.733213"
   y="112.60088"
   id="tspan840"
   style="fill:#e6e6e6;fill-opacity:1;stroke:none;stroke-width:0.0700043">𝑖</tspan></text>
    <path
       d="m 43.449868,106.58689 c 0.603514,0.15928 1.067064,0.50271 1.39065,1.03109 0.323585,0.5281 0.485246,1.16522 0.485246,1.91135 0,0.74824 -0.161132,1.38535 -0.483659,1.91161 -0.322527,0.52599 -0.786606,0.86863 -1.392237,1.02764 l -0.07435,-0.23865 c 0.477573,-0.15902 0.832379,-0.47334 1.064948,-0.94245 0.232569,-0.46937 0.348985,-1.06574 0.348985,-1.78911 0,-0.69877 -0.115887,-1.279 -0.347398,-1.74096 -0.23151,-0.46196 -0.590021,-0.77258 -1.075796,-0.93186 z m -10.229321,0 0.08361,0.23866 c -0.483658,0.15928 -0.841904,0.4699 -1.074472,0.93186 -0.232305,0.46196 -0.348721,1.04219 -0.348721,1.74096 0,0.72337 0.116416,1.31974 0.348721,1.78911 0.232568,0.46911 0.587639,0.78343 1.065212,0.94245 l -0.07435,0.23865 c -0.605631,-0.15901 -1.06971,-0.50165 -1.392237,-1.02764 -0.322527,-0.52626 -0.483659,-1.16337 -0.483659,-1.91161 0,-0.74613 0.161661,-1.38325 0.485246,-1.91135 0.323321,-0.52838 0.786871,-0.87181 1.39065,-1.03109 z"
       fill-rule="evenodd"
       id="path844"
       style="fill:#e6e6e6;fill-opacity:1;stroke:none;stroke-width:0.264583" />
    <text
       font-family="'Cambria Math', 'Cambria Math_MSFontService', sans-serif"
       font-weight="400"
       font-size="6.35px"
       id="text856"
       x="33.421631"
       y="111.27796"
       style="fill:#e6e6e6;fill-opacity:1;stroke:none;stroke-width:0.264583">𝑢<tspan
   font-size="6.35px"
   x="37.242214"
   y="111.27796"
   id="tspan846"
   style="fill:#e6e6e6;fill-opacity:1;stroke:none;stroke-width:0.0700043">,</tspan><tspan
   font-size="6.35px"
   x="39.623463"
   y="111.27796"
   id="tspan848"
   style="fill:#e6e6e6;fill-opacity:1;stroke:none;stroke-width:0.0700043">𝑣</tspan><tspan
   font-size="6.35px"
   x="47.294605"
   y="111.27796"
   id="tspan850"
   style="fill:#e6e6e6;fill-opacity:1;stroke:none;stroke-width:0.0700043">⋅</tspan><tspan
   font-size="6.35px"
   x="50.513714"
   y="111.27796"
   id="tspan852"
   style="fill:#e6e6e6;fill-opacity:1;stroke:none;stroke-width:0.0700043">𝑓</tspan><tspan
   font-size="4.7625px"
   x="52.757381"
   y="112.60088"
   id="tspan854"
   style="fill:#e6e6e6;fill-opacity:1;stroke:none;stroke-width:0.0700043">𝑗</tspan></text>
    <path
       d="m 68.003201,106.58689 c 0.603514,0.15928 1.067064,0.50271 1.39065,1.03109 0.323585,0.5281 0.485246,1.16522 0.485246,1.91135 0,0.74824 -0.161132,1.38535 -0.483659,1.91161 -0.322527,0.52599 -0.786606,0.86863 -1.392237,1.02764 l -0.07435,-0.23865 c 0.477573,-0.15902 0.832379,-0.47334 1.064948,-0.94245 0.232569,-0.46937 0.348985,-1.06574 0.348985,-1.78911 0,-0.69877 -0.115887,-1.279 -0.347398,-1.74096 -0.23151,-0.46196 -0.59002,-0.77258 -1.075795,-0.93186 z m -10.229321,0 0.08361,0.23866 c -0.483658,0.15928 -0.841904,0.4699 -1.074472,0.93186 -0.232305,0.46196 -0.348721,1.04219 -0.348721,1.74096 0,0.72337 0.116416,1.31974 0.348721,1.78911 0.232568,0.46911 0.587639,0.78343 1.065212,0.94245 l -0.07435,0.23865 c -0.605631,-0.15901 -1.06971,-0.50165 -1.392237,-1.02764 -0.322527,-0.52626 -0.483659,-1.16337 -0.483659,-1.91161 0,-0.74613 0.161661,-1.38325 0.485246,-1.91135 0.323321,-0.52838 0.786871,-0.87181 1.39065,-1.03109 z"
       fill-rule="evenodd"
       id="path858"
       style="fill:#e6e6e6;fill-opacity:1;stroke:none;stroke-width:0.264583" />
    <text
       font-family="'Cambria Math', 'Cambria Math_MSFontService', sans-serif"
       font-weight="400"
       font-size="6.35px"
       id="text866"
       x="57.974964"
       y="111.27796"
       style="fill:#e6e6e6;fill-opacity:1;stroke:none;stroke-width:0.264583">𝑢<tspan
   font-size="6.35px"
   x="61.795547"
   y="111.27796"
   id="tspan860"
   style="fill:#e6e6e6;fill-opacity:1;stroke:none;stroke-width:0.0700043">,</tspan><tspan
   font-size="6.35px"
   x="64.176796"
   y="111.27796"
   id="tspan862"
   style="fill:#e6e6e6;fill-opacity:1;stroke:none;stroke-width:0.0700043">𝑣</tspan><tspan
   font-size="6.35px"
   x="71.495171"
   y="111.27796"
   id="tspan864"
   style="fill:#e6e6e6;fill-opacity:1;stroke:none;stroke-width:0.0700043">𝑑</tspan></text>
    <path
       d="m 88.019724,106.58689 c 0.603779,0.15928 1.067329,0.50271 1.390649,1.03109 0.323586,0.5281 0.485246,1.16522 0.485246,1.91135 0,0.74824 -0.161131,1.38535 -0.483658,1.91161 -0.322527,0.52599 -0.786342,0.86863 -1.392237,1.02764 l -0.07435,-0.23865 c 0.477573,-0.15902 0.832643,-0.47334 1.065212,-0.94245 0.232304,-0.46937 0.348721,-1.06574 0.348721,-1.78911 0,-0.69877 -0.115888,-1.279 -0.347398,-1.74096 -0.23151,-0.46196 -0.590021,-0.77258 -1.075796,-0.93186 z m -10.229321,0 0.08361,0.23866 c -0.483658,0.15928 -0.841639,0.4699 -1.074208,0.93186 -0.232569,0.46196 -0.348986,1.04219 -0.348986,1.74096 0,0.72337 0.116417,1.31974 0.348986,1.78911 0.232569,0.46911 0.587375,0.78343 1.064948,0.94245 l -0.07435,0.23865 c -0.605631,-0.15901 -1.069711,-0.50165 -1.392238,-1.02764 -0.322527,-0.52626 -0.483658,-1.16337 -0.483658,-1.91161 0,-0.74613 0.16166,-1.38325 0.485246,-1.91135 0.323585,-0.52838 0.787135,-0.87181 1.39065,-1.03109 z"
       fill-rule="evenodd"
       id="path868"
       style="fill:#e6e6e6;fill-opacity:1;stroke:none;stroke-width:0.264583" />
    <text
       font-family="'Cambria Math', 'Cambria Math_MSFontService', sans-serif"
       font-weight="400"
       font-size="6.35px"
       id="text876"
       x="77.991753"
       y="111.27796"
       style="fill:#e6e6e6;fill-opacity:1;stroke:none;stroke-width:0.264583">𝑢<tspan
   font-size="6.35px"
   x="81.812332"
   y="111.27796"
   id="tspan870"
   style="fill:#e6e6e6;fill-opacity:1;stroke:none;stroke-width:0.0700043">,</tspan><tspan
   font-size="6.35px"
   x="84.193581"
   y="111.27796"
   id="tspan872"
   style="fill:#e6e6e6;fill-opacity:1;stroke:none;stroke-width:0.0700043">𝑣</tspan><tspan
   font-size="6.35px"
   x="92.217522"
   y="111.27796"
   id="tspan874"
   style="fill:#e6e6e6;fill-opacity:1;stroke:none;stroke-width:0.0700043">=</tspan></text>
    <path
       d="m 100.36862,105.73044 0.32861,0.10848 -0.995359,3.68961 0.995359,3.68671 -0.32861,0.11165 -1.23719,-3.68353 v -0.22939 z m 42.88975,-0.003 1.23719,3.68671 v 0.22939 l -1.23719,3.68353 -0.32861,-0.11165 0.99536,-3.68671 -0.99536,-3.69279 z m -21.82362,-0.0341 h 0.47757 v 7.6708 h -0.47757 z"
       fill-rule="evenodd"
       id="path878"
       style="fill:#e6e6e6;fill-opacity:1;stroke:none;stroke-width:0.264583" />
    <text
       font-family="'Cambria Math', 'Cambria Math_MSFontService', sans-serif"
       font-weight="400"
       font-size="6.35px"
       id="text882"
       x="101.02638"
       y="111.27796"
       style="fill:#e6e6e6;fill-opacity:1;stroke:none;stroke-width:0.264583">𝑓<tspan
   font-size="4.7625px"
   x="103.51876"
   y="112.60088"
   id="tspan880"
   style="fill:#e6e6e6;fill-opacity:1;stroke:none;stroke-width:0.0700043">𝑖</tspan></text>
    <path
       d="m 118.23514,106.58689 c 0.60378,0.15928 1.06733,0.50271 1.39065,1.03109 0.32359,0.5281 0.48525,1.16522 0.48525,1.91135 0,0.74824 -0.16114,1.38535 -0.48366,1.91161 -0.32253,0.52599 -0.78634,0.86863 -1.39224,1.02764 l -0.0743,-0.23865 c 0.47757,-0.15902 0.83265,-0.47334 1.06521,-0.94245 0.23231,-0.46937 0.34873,-1.06574 0.34873,-1.78911 0,-0.69877 -0.11589,-1.279 -0.3474,-1.74096 -0.23151,-0.46196 -0.59002,-0.77258 -1.0758,-0.93186 z m -10.22932,0 0.0836,0.23866 c -0.48366,0.15928 -0.84164,0.4699 -1.07421,0.93186 -0.23257,0.46196 -0.34899,1.04219 -0.34899,1.74096 0,0.72337 0.11642,1.31974 0.34899,1.78911 0.23257,0.46911 0.58764,0.78343 1.06495,0.94245 l -0.0743,0.23865 c -0.60563,-0.15901 -1.06971,-0.50165 -1.39224,-1.02764 -0.32253,-0.52626 -0.48366,-1.16337 -0.48366,-1.91161 0,-0.74613 0.16166,-1.38325 0.48525,-1.91135 0.32358,-0.52838 0.78713,-0.87181 1.39065,-1.03109 z"
       fill-rule="evenodd"
       id="path884"
       style="fill:#e6e6e6;fill-opacity:1;stroke:none;stroke-width:0.264583" />
    <text
       font-family="'Cambria Math', 'Cambria Math_MSFontService', sans-serif"
       font-weight="400"
       font-size="6.35px"
       id="text894"
       x="108.20717"
       y="111.27796"
       style="fill:#e6e6e6;fill-opacity:1;stroke:none;stroke-width:0.264583">𝑢<tspan
   font-size="6.35px"
   x="112.02776"
   y="111.27796"
   id="tspan886"
   style="fill:#e6e6e6;fill-opacity:1;stroke:none;stroke-width:0.0700043">,</tspan><tspan
   font-size="6.35px"
   x="114.409"
   y="111.27796"
   id="tspan888"
   style="fill:#e6e6e6;fill-opacity:1;stroke:none;stroke-width:0.0700043">𝑣</tspan><tspan
   font-size="6.35px"
   x="122.67813"
   y="111.27796"
   id="tspan890"
   style="fill:#e6e6e6;fill-opacity:1;stroke:none;stroke-width:0.0700043">𝑓</tspan><tspan
   font-size="4.7625px"
   x="124.92178"
   y="112.60088"
   id="tspan892"
   style="fill:#e6e6e6;fill-opacity:1;stroke:none;stroke-width:0.0700043">𝑗</tspan></text>
    <path
       d="m 140.16751,106.58689 c 0.60351,0.15928 1.06706,0.50271 1.39065,1.03109 0.32332,0.5281 0.48525,1.16522 0.48525,1.91135 0,0.74824 -0.1614,1.38535 -0.48366,1.91161 -0.32253,0.52599 -0.78661,0.86863 -1.39224,1.02764 l -0.0743,-0.23865 c 0.47731,-0.15902 0.83238,-0.47334 1.06495,-0.94245 0.23257,-0.46937 0.34872,-1.06574 0.34872,-1.78911 0,-0.69877 -0.11562,-1.279 -0.34713,-1.74096 -0.23151,-0.46196 -0.59029,-0.77258 -1.07606,-0.93186 z m -10.22958,0 0.0839,0.23866 c -0.48366,0.15928 -0.84191,0.4699 -1.07447,0.93186 -0.23257,0.46196 -0.34873,1.04219 -0.34873,1.74096 0,0.72337 0.11616,1.31974 0.34873,1.78911 0.23256,0.46911 0.58763,0.78343 1.06521,0.94245 l -0.0746,0.23865 c -0.60564,-0.15901 -1.06972,-0.50165 -1.39198,-1.02764 -0.32252,-0.52626 -0.48392,-1.16337 -0.48392,-1.91161 0,-0.74613 0.16192,-1.38325 0.48525,-1.91135 0.32358,-0.52838 0.78713,-0.87181 1.39065,-1.03109 z"
       fill-rule="evenodd"
       id="path896"
       style="fill:#e6e6e6;fill-opacity:1;stroke:none;stroke-width:0.264583" />
    <text
       font-family="'Cambria Math', 'Cambria Math_MSFontService', sans-serif"
       font-weight="400"
       font-size="6.35px"
       id="text906"
       x="130.13927"
       y="111.27796"
       style="fill:#e6e6e6;fill-opacity:1;stroke:none;stroke-width:0.264583">𝑢<tspan
   font-size="6.35px"
   x="133.95985"
   y="111.27796"
   id="tspan898"
   style="fill:#e6e6e6;fill-opacity:1;stroke:none;stroke-width:0.0700043">,</tspan><tspan
   font-size="6.35px"
   x="136.34111"
   y="111.27796"
   id="tspan900"
   style="fill:#e6e6e6;fill-opacity:1;stroke:none;stroke-width:0.0700043">𝑣</tspan><tspan
   font-size="6.35px"
   x="146.64752"
   y="111.27796"
   id="tspan902"
   style="fill:#e6e6e6;fill-opacity:1;stroke:none;stroke-width:0.0700043">=</tspan><tspan
   fill="#ff0000"
   font-size="6.35px"
   x="153.17389"
   y="111.27796"
   id="tspan904"
   style="fill:#e6e6e6;fill-opacity:1;stroke:none;stroke-width:0.0700043">𝑠</tspan></text>
    <path
       d="m 155.71522,107.04256 0.24185,0.10541 c -0.0785,0.16952 -0.15348,0.30025 -0.2248,0.39222 -0.0713,0.092 -0.13952,0.15505 -0.20463,0.18915 -0.0651,0.0341 -0.13902,0.0512 -0.2217,0.0512 -0.0558,2e-5 -0.10438,-0.006 -0.14572,-0.017 -0.0414,-0.0114 -0.0822,-0.0279 -0.12248,-0.0496 -0.0403,-0.0217 -0.10283,-0.0615 -0.18758,-0.11938 -0.0558,-0.0372 -0.0997,-0.0661 -0.13178,-0.0868 -0.032,-0.0207 -0.0656,-0.0377 -0.10077,-0.0512 -0.0351,-0.0134 -0.0723,-0.0201 -0.11162,-0.0201 -0.0537,0 -0.0987,0.0103 -0.13487,0.031 -0.0362,0.0207 -0.0729,0.0568 -0.11007,0.10851 -0.0372,0.0517 -0.0755,0.11988 -0.11473,0.20463 l -0.24184,-0.10541 c 0.0992,-0.19844 0.17983,-0.33642 0.24184,-0.41392 0.062,-0.0775 0.12558,-0.13332 0.19069,-0.16745 0.0651,-0.0341 0.14314,-0.0512 0.23409,-0.0512 0.0496,0 0.0946,0.006 0.13488,0.017 0.0403,0.0114 0.0775,0.0264 0.11162,0.045 0.0341,0.0186 0.0925,0.0558 0.17518,0.1116 0.0599,0.0414 0.10749,0.0734 0.14263,0.0961 0.0351,0.0228 0.0713,0.0408 0.10852,0.0543 0.0372,0.0134 0.0796,0.0202 0.12713,0.0202 0.0661,0 0.12505,-0.0253 0.17673,-0.076 0.0517,-0.0506 0.10749,-0.14004 0.16743,-0.26821 z"
       fill="#ff0000"
       id="path908"
       style="fill:#e5e5e5;fill-opacity:1;stroke-width:0.264583" />
    <text
       fill="#ff0000"
       font-family="'Cambria Math', 'Cambria Math_MSFontService', sans-serif"
       font-weight="400"
       font-size="4.7625px"
       id="text910"
       x="155.97319"
       y="112.60087"
       style="fill:#e5e5e5;fill-opacity:1;stroke-width:0.264583">𝑖𝑗</text>
    <path
       d="m 34.175428,67.758232 c 2.960688,-6.006041 5.92164,-12.012083 7.867386,-19.175412 1.945745,-7.163064 2.453216,-25.824391 3.80656,-23.803768 1.353608,2.020358 1.05754,27.367177 4.31456,35.926183 3.256757,8.55927 5.456238,12.269258 15.227036,15.428383 9.770533,3.159389 26.583745,3.34301 43.39696,3.526631"
       stroke="#376092"
       stroke-width="0.79375"
       stroke-linejoin="round"
       stroke-miterlimit="10"
       fill="none"
       fill-rule="evenodd"
       id="path912"
       style="fill:none;fill-opacity:1;stroke:#769ccb;stroke-opacity:1" />
    <path
       d="m 108.78793,54.501285 c -2.4384,-19.305588 -4.87654,-38.611439 -6.9551,-38.065075 -2.078571,0.5461 -2.958046,32.056916 -5.516038,41.342204 -2.558256,9.285287 -4.39711,10.797646 -9.833239,14.368991 -5.436129,3.571082 -14.109965,5.756011 -22.784065,7.05829 -8.673835,1.302544 -18.966656,1.029494 -29.259476,0.756444"
       stroke="#953735"
       stroke-width="0.79375"
       stroke-linejoin="round"
       stroke-miterlimit="10"
       fill="none"
       fill-rule="evenodd"
       id="path914" />
    <path
       d="m 34.087234,80.331232 2.7e-5,-66.243728 h -0.61736 l -2.9e-5,66.243728 z m 0.749679,-65.890774 -1.058332,-2.116667 -1.058335,2.116667 z"
       id="path916"
       style="fill:#e5e5e5;fill-opacity:1;stroke-width:0.264583" />
    <path
       d="m 33.778553,80.012939 h 80.484397 v 0.617537 H 33.778553 Z M 113.91,79.263374 l 2.11666,1.058333 -2.11666,1.058334 z"
       id="path918"
       style="fill:#e5e5e5;fill-opacity:1;stroke-width:0.264583" />
    <text
       font-family="'Cambria Math', 'Cambria Math_MSFontService', sans-serif"
       font-weight="400"
       font-size="7.67292px"
       id="text928"
       x="22.060501"
       y="7.032125"
       style="fill:#e5e5e5;fill-opacity:1;stroke-width:0.264583">𝑓<tspan
   font-size="7.67292px"
   x="26.565483"
   y="7.032125"
   id="tspan920"
   style="fill:#e5e5e5;fill-opacity:1;stroke-width:0.0700043">(</tspan><tspan
   font-size="7.67292px"
   x="29.784563"
   y="7.032125"
   id="tspan922"
   style="fill:#e5e5e5;fill-opacity:1;stroke-width:0.0700043">𝑢</tspan><tspan
   font-size="7.67292px"
   x="34.435936"
   y="7.032125"
   id="tspan924"
   style="fill:#e5e5e5;fill-opacity:1;stroke-width:0.0700043">)</tspan><tspan
   font-size="7.67292px"
   x="119.74017"
   y="82.967537"
   id="tspan926"
   style="fill:#e5e5e5;fill-opacity:1;stroke-width:0.0700043">𝑢</tspan></text>
    <path
       d="m 108.63024,11.000875 -0.50378,74.561434"
       stroke="#000000"
       stroke-width="0.529167"
       stroke-linejoin="round"
       stroke-miterlimit="10"
       stroke-dasharray="2.11667, 1.5875"
       fill="none"
       fill-rule="evenodd"
       id="path930"
       style="fill:#e5e5e5;fill-opacity:1;stroke:#e5e5e5;stroke-opacity:1" />
    <text
       font-family="'Cambria Math', 'Cambria Math_MSFontService', sans-serif"
       font-weight="400"
       font-size="5.55625px"
       id="text942"
       x="101.08564"
       y="92.227959"
       style="fill:#e5e5e5;fill-opacity:1;stroke-width:0.264583">𝑢<tspan
   font-size="5.55625px"
   x="106.01572"
   y="92.227959"
   id="tspan932"
   style="fill:#e5e5e5;fill-opacity:1;stroke-width:0.0700043">=</tspan><tspan
   font-size="5.55625px"
   x="111.81714"
   y="92.227959"
   id="tspan934"
   style="fill:#e5e5e5;fill-opacity:1;stroke-width:0.0700043">1</tspan><tspan
   font-size="5.55625px"
   x="26.911026"
   y="87.465454"
   id="tspan936"
   style="fill:#e5e5e5;fill-opacity:1;stroke-width:0.0700043">𝑢</tspan><tspan
   font-size="5.55625px"
   x="31.841005"
   y="87.465454"
   id="tspan938"
   style="fill:#e5e5e5;fill-opacity:1;stroke-width:0.0700043">=</tspan><tspan
   font-size="5.55625px"
   x="37.642525"
   y="87.465454"
   id="tspan940"
   style="fill:#e5e5e5;fill-opacity:1;stroke-width:0.0700043">0</tspan></text>
    <path
       d="m 34.440012,80.025639 c 8.64526,0.4064 17.29052,0.8128 23.479918,-0.243946 6.189398,-1.056746 9.943042,-5.486929 13.656469,-6.096529 3.713691,-0.6096 4.83182,1.463145 8.625416,2.438664 3.793331,0.975519 9.503569,2.804319 14.135629,3.413919 4.632061,0.609864 9.144526,0.426773 13.656736,0.243946"
       stroke="#ff0000"
       stroke-width="0.79375"
       stroke-linejoin="round"
       stroke-miterlimit="10"
       fill="none"
       fill-rule="evenodd"
       id="path944" />
    <text
       fill="#254061"
       font-family="'Cambria Math', 'Cambria Math_MSFontService', sans-serif"
       font-weight="400"
       font-size="7.67292px"
       id="text962"
       x="47.5308"
       y="20.525875"
       style="stroke-width:0.264583">𝑓<tspan
   font-size="5.55625px"
   x="50.596447"
   y="22.113375"
   id="tspan946"
   style="stroke-width:0.0700043">𝑖</tspan><tspan
   fill="#632523"
   font-size="7.67292px"
   x="90.929344"
   y="14.705042"
   id="tspan948"
   style="stroke-width:0.0700043">𝑓</tspan><tspan
   fill="#632523"
   font-size="5.55625px"
   x="93.691597"
   y="16.292542"
   id="tspan950"
   style="stroke-width:0.0700043">𝑗</tspan><tspan
   fill="#ff0000"
   font-size="7.67292px"
   x="62.819988"
   y="66.03421"
   id="tspan952"
   style="stroke-width:0.0700043">𝑓</tspan><tspan
   fill="#ff0000"
   font-size="5.55625px"
   x="65.885635"
   y="67.621704"
   id="tspan954"
   style="stroke-width:0.0700043">𝑖</tspan><tspan
   fill="#ff0000"
   font-size="7.67292px"
   x="70.1119"
   y="66.03421"
   id="tspan956"
   style="stroke-width:0.0700043">⋅</tspan><tspan
   fill="#ff0000"
   font-size="7.67292px"
   x="74.041786"
   y="66.03421"
   id="tspan958"
   style="stroke-width:0.0700043">𝑓</tspan><tspan
   fill="#ff0000"
   font-size="5.55625px"
   x="76.804039"
   y="67.621704"
   id="tspan960"
   style="stroke-width:0.0700043">𝑗</tspan></text>
    <path
       d="m 34.440012,80.042043 c 8.64526,0.390789 17.29052,0.781579 23.479918,-0.234421 6.189398,-1.016 9.943042,-5.276056 13.656469,-5.862108 3.713691,-0.586317 4.83182,1.406789 8.625416,2.344737 3.793331,0.937948 9.503569,2.696633 14.135629,3.28295 4.632061,0.586052 9.144526,0.410104 13.656736,0.234421"
       stroke="#ff0000"
       stroke-width="0.79375"
       stroke-linejoin="round"
       stroke-miterlimit="10"
       fill="#ff0000"
       fill-rule="evenodd"
       id="path964" />
    <path
       d="M 57.815473,91.315155 70.826199,77.538449 70.37736,77.11456 57.366633,90.891271 Z m 12.531301,-11.532007 0.675614,-2.90203 -2.858665,0.840343 c -0.163565,0.04807 -0.257175,0.219657 -0.2091,0.383223 0.04807,0.163539 0.219657,0.257175 0.383196,0.209074 l 2.351008,-0.691092 -0.387694,-0.366157 -0.555651,2.386647 c -0.03866,0.166053 0.06461,0.331973 0.230664,0.370629 0.166026,0.03866 0.331972,-0.06458 0.370628,-0.230637 z"
       id="path966"
       style="fill:#e5e5e5;fill-opacity:1;stroke-width:0.264583" />
    <path
       d="m 18.432694,102.28212 c 0,-1.60734 0.295222,-2.910413 0.659394,-2.910413 h 37.581919 c 0.364067,0 0.659342,-1.303073 0.659342,-2.910417 0,1.607344 0.295275,2.910417 0.659342,2.910417 h 35.186937 c 0.364066,0 0.659341,1.303073 0.659341,2.910413"
       stroke="#000000"
       stroke-width="0.61736"
       stroke-linejoin="round"
       stroke-miterlimit="10"
       fill="none"
       fill-rule="evenodd"
       id="path968"
       style="fill:none;fill-opacity:1;stroke:#e5e5e5;stroke-opacity:1" />
  </g>
</svg>
